<?xml version="1.0" standalone="no"?>
<!DOCTYPE svg PUBLIC "-//W3C//DTD SVG 20010904//EN"
 "http://www.w3.org/TR/2001/REC-SVG-20010904/DTD/svg10.dtd">
<svg version="1.0" xmlns="http://www.w3.org/2000/svg"
 width="752.000000pt" height="647.000000pt" viewBox="0 0 752.000000 647.000000"
 preserveAspectRatio="xMidYMid meet">
<metadata>
Created by potrace 1.15, written by Peter Selinger 2001-2017
</metadata>
<g transform="translate(0.000000,647.000000) scale(0.100000,-0.100000)"
fill="#000000" stroke="none">
<path d="M630 5412 l0 -169 128 -6 c70 -4 150 -13 177 -20 172 -47 302 -185
418 -442 19 -44 107 -264 195 -490 88 -225 412 -1051 720 -1835 308 -784 597
-1521 642 -1638 l83 -212 666 2 665 3 101 260 c56 143 324 829 595 1525 792
2032 906 2323 948 2411 147 307 320 428 610 429 l92 0 0 175 0 175 -1350 0
-1350 0 0 -169 0 -169 188 -5 c208 -5 270 -18 314 -64 29 -31 48 -72 48 -107
0 -41 -49 -120 -162 -263 -128 -160 -169 -224 -199 -309 -31 -86 -35 -155 -15
-209 24 -61 57 -85 116 -85 52 0 38 -8 261 151 204 145 253 172 321 177 56 4
59 3 97 -34 70 -70 74 -187 12 -321 -37 -78 -85 -141 -231 -303 -125 -138
-207 -244 -238 -305 -27 -55 -45 -146 -36 -190 8 -46 46 -92 82 -100 40 -8
111 16 181 64 114 78 186 92 238 47 27 -23 28 -28 28 -113 -1 -73 -5 -98 -27
-145 -39 -84 -95 -160 -208 -283 -188 -204 -294 -362 -334 -494 -9 -31 -16
-90 -16 -135 0 -73 7 -100 63 -266 l62 -185 -97 0 -98 0 -61 165 c-33 91 -83
227 -111 302 -73 198 -109 233 -308 297 -143 47 -152 45 -278 -48 -176 -130
-246 -157 -292 -111 -29 29 -25 65 20 151 74 142 140 381 140 506 0 84 78 122
135 66 35 -36 52 -70 110 -223 26 -69 54 -133 62 -142 13 -14 221 -88 247 -88
13 0 3 31 -80 254 -115 310 -150 379 -236 471 -87 93 -185 159 -358 242 -263
125 -319 156 -383 207 -114 90 -172 177 -184 273 -7 65 10 114 52 152 71 62
159 51 444 -53 85 -31 169 -56 188 -56 157 0 147 199 -19 376 -35 36 -117 108
-183 158 -149 114 -283 244 -324 316 -23 41 -31 68 -31 103 0 122 75 157 330
157 l140 0 0 133 c0 72 3 149 6 170 l7 37 -1362 0 -1361 0 0 -168z m2567
-2302 c48 -11 98 -22 111 -25 19 -5 22 -12 22 -53 0 -113 -47 -296 -110 -426
-62 -130 -47 -124 -181 -71 -155 61 -202 92 -233 153 -25 50 -46 146 -46 212
0 47 86 153 160 198 47 28 63 32 122 32 37 0 107 -9 155 -20z"/>
</g>
</svg>
